<?xml version="1.0" encoding="utf-8"?>
<!-- Generator: Adobe Illustrator 16.0.4, SVG Export Plug-In . SVG Version: 6.00 Build 0)  -->
<!DOCTYPE svg PUBLIC "-//W3C//DTD SVG 1.1//EN" "http://www.w3.org/Graphics/SVG/1.1/DTD/svg11.dtd">
<svg version="1.1" id="Layer_1" xmlns="http://www.w3.org/2000/svg" xmlns:xlink="http://www.w3.org/1999/xlink" x="0px" y="0px"
	 width="501.451px" height="217.939px" viewBox="0 0 501.451 217.939" enable-background="new 0 0 501.451 217.939"
	 xml:space="preserve">
<g transform="matrix(1.25 0 0 -1.25 -168.411 801.128)">
	<path fill="#FFFFFF" d="M294.84,545.825v-24.1h-5.529v44.491h4.367l7.048-23.413h0.81l7.158,23.413h4.198v-44.491h-5.531v24.273
		l-5.414-20.093h-1.865L294.84,545.825z"/>
	<path fill="#FFFFFF" d="M326.513,521.725h-5.709v44.491h5.709V521.725z"/>
	<path fill="#FFFFFF" d="M340.316,545.249v-23.523h-5.3v44.491h2.964l10.309-24.347v24.347h5.302v-44.491h-3.089L340.316,545.249z"
		/>
	<path fill="#FFFFFF" d="M366.807,545.249v-23.523h-5.303v44.491h2.968l10.305-24.347v24.347h5.302v-44.491h-3.086L366.807,545.249
		L366.807,545.249z"/>
	<path fill="#FFFFFF" d="M402.492,521.725h-14.495v44.491h14.33v-4.842h-8.623v-14.438h8.095v-4.895h-8.095v-15.487h8.789V521.725
		L402.492,521.725z"/>
	<path fill="#FFFFFF" d="M417.569,552.408h-0.406l-3.086-17.124h6.412L417.569,552.408z M422.643,521.725l-1.339,8.623h-8.038
		l-1.398-8.623h-5.645l8.265,44.491h5.879l8.155-44.491H422.643z"/>
	<path fill="#FFFFFF" d="M439.704,543.676h6.873v17.698h-6.873V543.676z M439.704,521.725h-5.709v44.491h14.091
		c2.795,0,4.195-1.528,4.195-3.736v-19.859c0-2.318-1.459-3.78-3.898-3.78h-8.678V521.725L439.704,521.725z"/>
	<path fill="#FFFFFF" d="M472.598,561.374h-8.146v-34.82h8.146V561.374z M478.304,525.338c0-2.333-2.032-3.613-3.491-3.613h-12.579
		c-1.452,0-3.491,1.28-3.491,3.613v37.252c0,2.331,2.04,3.626,3.491,3.626h12.579c1.459,0,3.491-1.295,3.491-3.626V525.338z"/>
	<path fill="#FFFFFF" d="M501.657,521.725h-15.606v44.491h5.698v-39.663h9.908V521.725z"/>
	<path fill="#FFFFFF" d="M512.189,521.725h-5.706v44.491h5.706V521.725z"/>
	<path fill="#FFFFFF" d="M525.17,536.979v-10.426h4.897v10.077l-9.495,13.566c-0.638,0.99-1.104,1.866-1.104,2.905v9.488
		c0,1.866,1.456,3.626,3.491,3.626h9.437c2.212,0,3.494-1.581,3.494-3.736v-9.086h-5.702v7.98h-4.892v-7.811l9.075-12.804
		c0.815-1.284,1.519-2.445,1.519-3.727v-11.575c0-2.042-1.342-3.732-3.494-3.732h-9.438c-1.802,0-3.49,1.334-3.49,3.677v11.577
		H525.17L525.17,536.979z"/>
	<path fill="#FFFFFF" d="M189.696,466.551h-5.709v44.491h5.709V466.551z"/>
	<path fill="#FFFFFF" d="M203.497,490.075v-23.524h-5.307v44.491h2.967l10.307-24.348v24.347h5.3v-44.491h-3.085L203.497,490.075
		L203.497,490.075z"/>
	<path fill="#FFFFFF" d="M229.163,481.805v-10.427h4.895v10.077l-9.492,13.566c-0.637,0.99-1.104,1.866-1.104,2.905v9.49
		c0,1.866,1.457,3.625,3.488,3.625h9.429c2.22,0,3.497-1.58,3.497-3.736v-9.086h-5.694v7.979h-4.906v-7.809l9.096-12.804
		c0.808-1.284,1.504-2.445,1.504-3.728v-11.574c0-2.042-1.33-3.732-3.497-3.732h-9.429c-1.789,0-3.488,1.334-3.488,3.678v11.576
		H229.163L229.163,481.805z"/>
	<path fill="#FFFFFF" d="M255.481,466.551h-5.713v39.648h-6.161v4.843h18.043v-4.843h-6.169V466.551z"/>
	<path fill="#FFFFFF" d="M272.488,466.551h-5.715v44.491h5.715V466.551z"/>
	<path fill="#FFFFFF" d="M290.014,466.551H284.3v39.648h-6.171v4.843h18.054v-4.843h-6.169V466.551L290.014,466.551z"/>
	<path fill="#FFFFFF" d="M306.836,511.042v-39.663h7.508v39.663h5.712v-40.813c0-2.166-1.403-3.678-3.495-3.678h-11.944
		c-2.035,0-3.487,1.334-3.487,3.678v40.813H306.836z"/>
	<path fill="#FFFFFF" d="M336.814,466.551h-5.695v39.648h-6.18v4.843h18.055v-4.843h-6.18V466.551z"/>
	<path fill="#FFFFFF" d="M362.616,466.551h-14.498v44.491h14.311v-4.843h-8.608V491.76h8.091v-4.895h-8.091v-15.487h8.795V466.551
		L362.616,466.551z"/>
	<path fill="#FFFFFF" d="M399.471,506.199h-8.15v-34.82h8.15V506.199L399.471,506.199z M405.175,470.165
		c0-2.334-2.034-3.614-3.487-3.614h-12.587c-1.45,0-3.494,1.28-3.494,3.614v37.252c0,2.33,2.044,3.625,3.494,3.625h12.587
		c1.452,0,3.487-1.295,3.487-3.625V470.165z"/>
	<path fill="#FFFFFF" d="M412.922,466.551v44.491h14.322v-4.843h-8.619v-14.501h8.097v-4.941h-8.097v-20.206H412.922z"/>
	<path fill="#FFFFFF" d="M458.966,497.234h-0.407l-3.089-17.123h6.411L458.966,497.234z M464.033,466.551l-1.336,8.622h-8.027
		l-1.409-8.622h-5.643l8.267,44.491h5.879l8.152-44.491H464.033z"/>
	<path fill="#FFFFFF" d="M481.092,466.551h-5.7v44.491h14.734c2.736,0,3.899-1.698,3.899-3.736v-16.369
		c0-2.548-1.743-3.768-3.847-3.768h-0.696l5.539-20.618h-6.411l-5.879,23.634l0.993,1.804h4.595v14.209h-7.227V466.551z"/>
	<path fill="#FFFFFF" d="M509.393,466.551h-5.704v39.648h-6.171v4.843h18.038v-4.843h-6.163V466.551z"/>
	<path fill="#FFFFFF" d="M525.175,481.805v-10.427h4.887v10.077l-9.481,13.566c-0.649,0.99-1.117,1.866-1.117,2.905v9.49
		c0,1.866,1.464,3.625,3.504,3.625h9.427c2.209,0,3.495-1.58,3.495-3.736v-9.086h-5.712v7.979h-4.887v-7.809l9.083-12.804
		c0.812-1.284,1.516-2.445,1.516-3.728v-11.574c0-2.042-1.34-3.732-3.495-3.732h-9.427c-1.804,0-3.504,1.334-3.504,3.678v11.576
		H525.175L525.175,481.805z"/>
	<path fill="#1896C6" d="M229.991,532.406v97.966l48.738,0.005v10.526h-69.908v-10.53h10.578l0.006-108.646h59.324v10.68H229.991z"
		/>
	<path fill="#F89C0E" d="M257.507,532.406h-16.942v44.493h16.942V532.406z"/>
	<path fill="#FABD34" d="M257.507,587.547h-16.942v32.262h16.942V587.547z"/>
	<path fill="#FABD34" d="M155.903,619.793l-0.006-87.385l10.582,0.001l0.002,87.384H155.903L155.903,619.793z"/>
	<path fill="#F89C0E" d="M177.074,619.793l-0.007-87.385l10.581,0.001l0.003,87.384H177.074L177.074,619.793z"/>
	<path fill="#F47216" d="M268.146,630.37v-97.964h10.583v97.97L268.146,630.37z"/>
	<path fill="#231F20" d="M208.821,630.371l-0.007-97.963l10.582,0.001l0.003,97.962L208.821,630.371L208.821,630.371z"/>
	<path fill="#2A976F" d="M208.821,640.902h-74.092v-10.53h63.508v-97.966l10.585,0.009L208.821,640.902z"/>
	<path fill="#B72C37" d="M145.313,532.406v97.966h-10.584V521.725h84.676v10.691L145.313,532.406L145.313,532.406z"/>
	<path fill="#231F20" d="M145.312,630.371l0.001-97.966l10.584,0.002l0.006,87.385h10.578l-0.002-87.384l10.588,0.002l0.007,87.383
		h10.577v-87.388l10.586,0.002v97.963H145.312L145.312,630.371z"/>
	<path fill="#231F20" d="M240.572,587.544v32.265h16.935v-32.262L240.572,587.544L240.572,587.544z M229.991,630.37v-97.964h10.579
		v44.493h16.937v-44.493h10.639v97.964H229.991z"/>
</g>
</svg>
