<svg xmlns="http://www.w3.org/2000/svg" width="501.451" height="217.939"><defs><clipPath><path d="M0 792h612v-792h-612v792z"/></clipPath></defs><g transform="matrix(1.25 0 0 -1.25 -168.411 801.128)"><path d="M294.84 545.825v-24.1h-5.529v44.491h4.367l7.048-23.413h.81l7.158 23.413h4.198v-44.491h-5.531v24.273l-5.414-20.093h-1.865l-5.242 19.92z" fill="#231f20"/><path d="M326.513 521.725h-5.709v44.491h5.709v-44.491z" fill="#231f20"/><path d="M340.316 545.249v-23.524h-5.3v44.491h2.964l10.309-24.347v24.347h5.301v-44.491h-3.089l-10.185 23.524z" fill="#231f20"/><path d="M366.807 545.249v-23.524h-5.303v44.491h2.968l10.304-24.347v24.347h5.302v-44.491h-3.086l-10.185 23.524z" fill="#231f20"/><path d="M402.492 521.725h-14.495v44.491h14.329v-4.842h-8.623v-14.439h8.095v-4.895h-8.095v-15.487h8.789v-4.828z" fill="#231f20"/><path d="M417.569 552.408h-.407l-3.085-17.124h6.411l-2.919 17.124zm5.074-30.683l-1.339 8.623h-8.038l-1.398-8.623h-5.645l8.265 44.491h5.879l8.155-44.491h-5.879z" fill="#231f20"/><path d="M439.704 543.676h6.872v17.698h-6.872v-17.698zm0-21.951h-5.709v44.491h14.091c2.795 0 4.194-1.528 4.194-3.736v-19.859c0-2.318-1.458-3.78-3.898-3.78h-8.678v-17.116z" fill="#231f20"/><path d="M472.598 561.374h-8.146v-34.821h8.146v34.821zm5.706-36.036c0-2.333-2.032-3.613-3.491-3.613h-12.579c-1.451 0-3.491 1.28-3.491 3.613v37.252c0 2.331 2.04 3.626 3.491 3.626h12.579c1.459 0 3.491-1.295 3.491-3.626v-37.252z" fill="#231f20"/><path d="M501.657 521.725h-15.606v44.491h5.698v-39.663h9.908v-4.828z" fill="#231f20"/><path d="M512.189 521.725h-5.706v44.491h5.706v-44.491z" fill="#231f20"/><path d="M525.17 536.979v-10.426h4.897v10.077l-9.494 13.566c-.639.99-1.104 1.866-1.104 2.906v9.488c0 1.866 1.456 3.626 3.49 3.626h9.437c2.212 0 3.494-1.581 3.494-3.736v-9.086h-5.702v7.98h-4.892v-7.811l9.075-12.804c.815-1.284 1.519-2.445 1.519-3.727v-11.575c0-2.042-1.342-3.732-3.494-3.732h-9.437c-1.802 0-3.49 1.334-3.49 3.678v11.576h5.701z" fill="#231f20"/><path d="M189.696 466.551h-5.709v44.491h5.709v-44.491z" fill="#231f20"/><path d="M203.497 490.075v-23.524h-5.307v44.491h2.967l10.307-24.347v24.347h5.3v-44.491h-3.085l-10.182 23.524z" fill="#231f20"/><path d="M229.163 481.805v-10.427h4.895v10.078l-9.492 13.566c-.637.99-1.104 1.866-1.104 2.905v9.49c0 1.865 1.457 3.625 3.488 3.625h9.429c2.22 0 3.497-1.581 3.497-3.736v-9.086h-5.694v7.979h-4.906v-7.81l9.096-12.804c.808-1.284 1.504-2.445 1.504-3.728v-11.574c0-2.042-1.33-3.732-3.497-3.732h-9.429c-1.789 0-3.488 1.334-3.488 3.678v11.576h5.701z" fill="#231f20"/><path d="M255.481 466.551h-5.713v39.648h-6.161v4.843h18.043v-4.843h-6.169v-39.648z" fill="#231f20"/><path d="M272.488 466.551h-5.715v44.491h5.715v-44.491z" fill="#231f20"/><path d="M290.014 466.551h-5.714v39.648h-6.171v4.843h18.054v-4.843h-6.169v-39.648z" fill="#231f20"/><path d="M306.836 511.042v-39.664h7.508v39.664h5.712v-40.813c0-2.166-1.403-3.678-3.495-3.678h-11.944c-2.035 0-3.487 1.334-3.487 3.678v40.813h5.706z" fill="#231f20"/><path d="M336.814 466.551h-5.695v39.648h-6.18v4.843h18.055v-4.843h-6.18v-39.648z" fill="#231f20"/><path d="M362.615 466.551h-14.498v44.491h14.311v-4.843h-8.608v-14.439h8.091v-4.895h-8.091v-15.487h8.795v-4.827z" fill="#231f20"/><path d="M399.471 506.199h-8.15v-34.821h8.15v34.821zm5.704-36.034c0-2.334-2.035-3.614-3.487-3.614h-12.587c-1.45 0-3.493 1.28-3.493 3.614v37.252c0 2.33 2.043 3.625 3.493 3.625h12.587c1.452 0 3.487-1.295 3.487-3.625v-37.252z" fill="#231f20"/><path d="M412.922 466.551v44.491h14.322v-4.843h-8.619v-14.501h8.097v-4.941h-8.097v-20.206h-5.703z" fill="#231f20"/><path d="M458.966 497.234h-.407l-3.089-17.124h6.411l-2.915 17.124zm5.067-30.683l-1.336 8.622h-8.027l-1.408-8.622h-5.643l8.267 44.491h5.879l8.151-44.491h-5.883z" fill="#231f20"/><path d="M481.092 466.551h-5.7v44.491h14.734c2.736 0 3.899-1.699 3.899-3.736v-16.369c0-2.548-1.743-3.768-3.847-3.768h-.696l5.539-20.618h-6.411l-5.879 23.634.993 1.804h4.595v14.21h-7.227v-39.648z" fill="#231f20"/><path d="M509.393 466.551h-5.704v39.648h-6.171v4.843h18.038v-4.843h-6.163v-39.648z" fill="#231f20"/><path d="M525.175 481.805v-10.427h4.887v10.078l-9.482 13.566c-.649.99-1.117 1.866-1.117 2.905v9.49c0 1.865 1.464 3.625 3.504 3.625h9.427c2.209 0 3.496-1.581 3.496-3.736v-9.086h-5.712v7.979h-4.887v-7.81l9.083-12.804c.812-1.284 1.516-2.445 1.516-3.728v-11.574c0-2.042-1.34-3.732-3.496-3.732h-9.427c-1.804 0-3.504 1.334-3.504 3.678v11.576h5.712z" fill="#231f20"/><path d="M229.991 532.406v97.965l48.738.005v10.526h-69.908v-10.531h10.578l.006-108.646h59.324v10.681h-48.738z" fill="#1896c6"/><path d="M257.507 532.406h-16.942v44.493h16.942v-44.493z" fill="#f89c0e"/><path d="M257.507 587.547h-16.942v32.262h16.942v-32.262z" fill="#fabd34"/><path d="M155.903 619.793l-.006-87.385 10.582.001.002 87.384h-10.578z" fill="#fabd34"/><path d="M177.074 619.793l-.007-87.385 10.581.001.003 87.384h-10.577z" fill="#f89c0e"/><path d="M268.146 630.37v-97.964h10.583v97.97l-10.583-.006z" fill="#f47216"/><path d="M208.821 630.371l-.007-97.963 10.582.001.003 97.962h-10.578z" fill="#231f20"/><path d="M208.821 640.902h-74.092v-10.531h63.508v-97.965l10.585.009-.001 108.487z" fill="#2a976f"/><path d="M145.313 532.406v97.965h-10.584v-108.646h84.676v10.691l-74.092-.01z" fill="#b72c37"/><path d="M145.312 630.371l.001-97.965 10.584.002.006 87.385h10.578l-.002-87.384 10.588.001.007 87.383h10.577v-87.387l10.586.002v97.963h-52.925z" fill="#231f20"/><path d="M240.572 587.544v32.265h16.935v-32.262l-16.935-.003zm-10.581 42.826v-97.964h10.579v44.493h16.937v-44.493h10.639v97.964h-38.155z" fill="#231f20"/></g></svg>