<?xml version="1.0" encoding="utf-8"?>
<!-- Generator: Adobe Illustrator 16.0.4, SVG Export Plug-In . SVG Version: 6.00 Build 0)  -->
<!DOCTYPE svg PUBLIC "-//W3C//DTD SVG 1.1//EN" "http://www.w3.org/Graphics/SVG/1.1/DTD/svg11.dtd">
<svg version="1.1" id="Layer_1" xmlns="http://www.w3.org/2000/svg" xmlns:xlink="http://www.w3.org/1999/xlink" x="0px" y="0px"
	 width="25px" height="25px" viewBox="0 0 25 25" enable-background="new 0 0 25 25" xml:space="preserve">
<path fill="#818181" d="M22.517,20.252l-5.537-5.538c0.866-1.24,1.375-2.737,1.375-4.348c0-4.268-3.56-7.739-7.936-7.739
	c-4.375,0-7.936,3.472-7.936,7.739c0,4.267,3.56,7.738,7.936,7.738c1.628,0,3.143-0.482,4.403-1.306l5.573,5.574L22.517,20.252z
	 M10.419,15.104c-2.722,0-4.936-2.125-4.936-4.738c0-2.613,2.214-4.739,4.936-4.739s4.936,2.126,4.936,4.739
	C15.354,12.979,13.141,15.104,10.419,15.104z"/>
</svg>
